<svg width="29" height="30" viewBox="0 0 29 30" fill="none" xmlns="http://www.w3.org/2000/svg">
<path d="M24.7345 6.78059L13.5054 18.1471C13.8384 18.6297 14.1215 19.1509 14.3489 19.7032L17.1507 26.532L24.7345 6.78059ZM11.5295 16.147L22.76 4.77902L3.24601 12.4557L9.99224 15.2932C10.5337 15.5206 11.0492 15.8068 11.5295 16.147ZM28.5719 4.47314L19.7309 27.4972C19.1735 28.9523 17.5643 29.6992 16.1385 29.1662C15.7912 29.0362 15.4742 28.835 15.2073 28.5752C14.9405 28.3153 14.7297 28.0024 14.588 27.6561L11.7862 20.8273C11.2411 19.4965 10.1965 18.4391 8.8818 17.8873L2.13411 15.0512C0.734698 14.4617 0.0951342 12.8239 0.708294 11.3896C0.85864 11.0391 1.07603 10.7222 1.34793 10.4572C1.61983 10.1921 1.94087 9.98418 2.29254 9.84532L25.0381 0.893169C25.5324 0.69156 26.0743 0.641528 26.5964 0.7493C27.1185 0.857071 27.5978 1.11789 27.9745 1.49929C28.3513 1.88069 28.609 2.36583 28.7155 2.89433C28.8219 3.42284 28.7725 3.97137 28.5733 4.47165L28.5719 4.47314Z" fill="white"/>
</svg>
